<svg id="Layer_1" data-name="Layer 1" xmlns="http://www.w3.org/2000/svg" viewBox="0 0 414.8 212.65"><defs><style>.cls-1{fill:#032635;}</style></defs><path class="cls-1" d="M5291.5,115.68c.05-.87.08-1.74.08-2.63A44.95,44.95,0,0,0,5225,73.64c-5.13-23.43-26.4-40.76-51.74-40.76l-2.75.07a52.51,52.51,0,0,0-47.31,35,65.48,65.48,0,0,0-50.38-19.83c-31.56,1.56-56.6,24.56-60.89,54.13a52.14,52.14,0,0,0-17.27-2.94A54.7,54.7,0,0,0,4940,153.89c0,.56,0,1.12.07,1.7-15.25,4.19-36.9,13.08-36.86,44.17,0,24.73,21.95,44.84,48.9,44.84l2.59,0c16.75-.86,86.2,0,86.22,0l0-1.14.36,0,.06,1.08v-1.08c9.22,1.25,30.6,1.28,80.34,1.38,0,0,37.4.63,64.53.63,10.24,0,19-.09,23.88-.33,25.48-1.27,46.69-25.47,45.74-52h4.82c8.37,0,15.57-.08,19.52-.28,10.66-.53,20.53-5.66,27.81-14.44a42.65,42.65,0,0,0,10-29C5317.25,134,5306.66,120.77,5291.5,115.68Zm-48.95,77.52c.87,17.42-13.09,37.66-33.05,38.65-17.6.87-87.47-.32-87.63-.31-31-.06-78-.18-80.49-.28l-.18,3-.06-3.06s-32.11-.41-58.06-.41c-12.46,0-23.52.1-29,.38l-1.92,0c-19.59,0-35.53-14.12-35.54-31.51,0-20.69,11.3-27.43,32.22-32.59l5-2.07L4954,160l-.26-2.51a27.06,27.06,0,0,1-.35-3.62,41.34,41.34,0,0,1,41.3-41.28,40.71,40.71,0,0,1,20,5.43l10.15,5.68-.2-11.61c-.46-27.06,21-49.32,48.85-50.71l2.72-.07a52,52,0,0,1,33.93,12.49A49.48,49.48,0,0,1,5122.69,90a48.35,48.35,0,0,1,4.73,18.63c.05,1,0,1.89-.13,4.29l-.65,17.2,12.09-12.27a40.9,40.9,0,0,1,29.39-12.37,41.32,41.32,0,0,1,41.3,41.27,42.2,42.2,0,0,1-.84,8.25l-1.35,6.71,6.74,1.18a34.86,34.86,0,0,1,24.54,16.84,30.16,30.16,0,0,1,4,13.39ZM5297.77,170c-4.87,5.87-11.33,9.29-18.2,9.63-5,.26-15.18.3-26.29.25a46.91,46.91,0,0,0-30.69-28.58c.12-1.49.18-3,.18-4.51a54.7,54.7,0,0,0-54.65-54.62,54,54,0,0,0-28.26,7.89,61.48,61.48,0,0,0-4.47-14.26c-.47-1.05-1.13-2-1.66-3,1-19.62,16.93-35.43,37.47-36.45l2.09-.06c21.14,0,38.49,16,39.51,36.4a31.65,31.65,0,0,1-.09,3.34l-.7,17.25,12.11-12.3a31.57,31.57,0,0,1,54.1,22.13,32.1,32.1,0,0,1-.63,6.32l-1.35,6.7,6.74,1.19c12.22,2.14,21.13,11.57,21.69,22.93A29.27,29.27,0,0,1,5297.77,170Z" transform="translate(-4903.25 -32.88)"/></svg>