<svg id="Layer_1" data-name="Layer 1" xmlns="http://www.w3.org/2000/svg" viewBox="0 0 512 509.43"><style>.el-1{fill:#032635}</style><path class="el-1"  d="M-5.74,486.23A12.75,12.75,0,0,0-18.49,499V612.2a38.3,38.3,0,0,1-38.26,38.25H-414.54a38.28,38.28,0,0,1-38.25-38.25V279.91a38.3,38.3,0,0,1,38.25-38.26h113.22a12.75,12.75,0,0,0,12.75-12.75,12.75,12.75,0,0,0-12.75-12.75H-414.54a63.83,63.83,0,0,0-63.76,63.76V612.2A63.83,63.83,0,0,0-414.54,676H-56.75A63.83,63.83,0,0,0,7,612.2V499A12.75,12.75,0,0,0-5.74,486.23Z" transform="translate(478.3 -166.53)"/><path class="el-1" d="M2,183.34a57.38,57.38,0,0,0-81.15,0l-227.5,227.49a12.89,12.89,0,0,0-3.27,5.62l-29.91,108a12.76,12.76,0,0,0,3.26,12.42,12.79,12.79,0,0,0,12.43,3.28l108-29.92a12.78,12.78,0,0,0,5.61-3.28L16.92,279.45a57.43,57.43,0,0,0,0-81.15ZM-278.9,419.12-92.72,232.93-32.67,293-218.86,479.17Zm-12,24.07,48,48-66.36,18.38ZM-1.11,261.42-14.63,275l-60-60.06,13.52-13.52a31.87,31.87,0,0,1,45.08,0l15,15A31.92,31.92,0,0,1-1.11,261.42Z" transform="translate(478.3 -166.53)"/></svg>