<svg id="Layer_1" data-name="Layer 1" xmlns="http://www.w3.org/2000/svg" viewBox="0 0 358.2 408.36"><defs><style>.cls-1{fill:#fff;}</style></defs><path class="cls-1" d="M-1240.27,2725.89c.15-1.62.22-3.24.22-4.85a55.3,55.3,0,0,0-55.25-55.23,54.59,54.59,0,0,0-29,8.27c-5.36-31.44-34.19-55-67.93-53.11-32.1,1.6-57.51,25.09-61.69,55.22a53.11,53.11,0,0,0-17.85-3.11,55.31,55.31,0,0,0-55.25,55.23c0,.66,0,1.32.07,2-15.42,4.19-37.56,13.11-37.52,44.66,0,23.44,19.51,43.56,46,44.82l8.14-12.54c-1,0-2,.05-2.82.09l-2,.06c-20.12,0-36.51-14.56-36.53-32.45,0-21.29,11.6-28.22,33.08-33.54l4.85-1.84.13-4.88-.24-2.62a26.3,26.3,0,0,1-.36-3.78,42.43,42.43,0,0,1,42.39-42.38,41.84,41.84,0,0,1,20.56,5.57l9.77,5.47-.2-11.18c-.47-27.73,21.52-50.56,50.08-52l2.76-.08c28.08,0,51.1,21.28,52.46,48.47a42.17,42.17,0,0,1-.13,4.43l-.58,16.51,11.59-11.79a42.06,42.06,0,0,1,30.19-12.69,42.43,42.43,0,0,1,42.39,42.37,43,43,0,0,1-.86,8.47l-1.31,6.46,6.49,1.13c16.55,2.91,28.63,15.74,29.41,31.19s-9.93,33.15-26.14,38.26l4.29,12c20.46-6.8,35.82-28,34.67-50.85C-1207.32,2748.15-1220.95,2731.72-1240.27,2725.89Z" transform="translate(1564.5 -2620.87)"/><polygon class="cls-1" points="63.53 408.36 65.59 405.18 137.7 293.96 67.65 293.84 127.28 198.61 133.06 198.61 92.68 281.5 167.87 281.87 63.53 408.36"/><polygon class="cls-1" points="174.79 364.37 176.63 361.52 241.28 261.81 178.48 261.7 231.94 176.33 237.11 176.33 200.9 250.64 268.34 250.97 174.79 364.37"/></svg>