<svg id="Layer_1" data-name="Layer 1" xmlns="http://www.w3.org/2000/svg" viewBox="0 0 378.27 512"><path d="M306.5,140.5c-104.29,0-189.14,84.84-189.14,189.14,0,34.33,15.4,71.25,16,72.81a304,304,0,0,0,21.86,40.89L285,639.83c5.31,8,13.16,12.67,21.55,12.67s16.24-4.62,21.55-12.66l129.69-196.5a302.9,302.9,0,0,0,21.86-40.89c.65-1.54,16-38.47,16-72.81C495.64,225.34,410.79,140.5,306.5,140.5ZM459.09,393.82a280.26,280.26,0,0,1-19.93,37.27L309.47,627.59c-2.56,3.88-3.37,3.88-5.93,0L173.85,431.09a280.37,280.37,0,0,1-19.93-37.28c-.19-.46-14.3-34.45-14.3-64.17,0-92,74.86-166.89,166.88-166.89s166.88,74.87,166.88,166.89C473.38,359.41,459.23,393.48,459.09,393.82Z" transform="translate(-117.36 -140.5)"/><path d="M306.5,229.52A100.13,100.13,0,1,0,406.63,329.65,100.24,100.24,0,0,0,306.5,229.52Zm0,178a77.88,77.88,0,1,1,77.88-77.88A78,78,0,0,1,306.5,407.53Z" transform="translate(-117.36 -140.5)"/></svg>