<svg id="Layer_1" data-name="Layer 1" xmlns="http://www.w3.org/2000/svg" viewBox="0 0 384 277.33"><defs><style>.cls-1{fill:#fff;}</style></defs><path class="cls-1" d="M-90.5,444.5h-352a16,16,0,0,1-16-16,16,16,0,0,1,16-16h352a16,16,0,0,1,16,16A16,16,0,0,1-90.5,444.5Z" transform="translate(458.5 -289.83)"/><path class="cls-1" d="M-90.5,321.83h-352a16,16,0,0,1-16-16,16,16,0,0,1,16-16h352a16,16,0,0,1,16,16A16,16,0,0,1-90.5,321.83Z" transform="translate(458.5 -289.83)"/><path class="cls-1" d="M-90.5,567.17h-352a16,16,0,0,1-16-16,16,16,0,0,1,16-16h352a16,16,0,0,1,16,16A16,16,0,0,1-90.5,567.17Z" transform="translate(458.5 -289.83)"/></svg>