<svg id="Layer_1" data-name="Layer 1" xmlns="http://www.w3.org/2000/svg" viewBox="0 0 334.15 113.21"><defs><style>.cls-1{fill:#fff;}</style></defs><path class="cls-1" d="M5106.56,2876.23c-11.26,0-17.14-6.36-21.88-11.46-4.45-4.8-8-8.6-15.32-8.6s-10.88,3.8-15.32,8.62c-4.76,5.08-10.63,11.44-21.88,11.44s-17.11-6.36-21.84-11.46c-4.46-4.8-8-8.6-15.3-8.6s-10.86,3.8-15.31,8.6c-4.72,5.1-10.6,11.46-21.84,11.46s-17.1-6.36-21.84-11.46c-4.45-4.8-8-8.6-15.3-8.6s-10.83,3.8-15.26,8.6c-4.72,5.1-10.6,11.46-21.81,11.46s-17.09-6.37-21.81-11.46c-4.43-4.8-7.92-8.6-15.23-8.6s-10.85,3.8-15.3,8.62c-4.73,5.08-10.58,11.44-21.8,11.44s-17.1-6.36-21.83-11.46c-4.44-4.8-7.95-8.6-15.28-8.6v-8.9c11.22,0,17.09,6.35,21.82,11.47,4.43,4.78,8,8.58,15.29,8.58s10.82-3.8,15.27-8.58c4.72-5.12,10.6-11.47,21.83-11.47s17.06,6.35,21.77,11.45c4.44,4.8,7.95,8.6,15.27,8.6s10.83-3.8,15.26-8.58c4.72-5.12,10.6-11.47,21.81-11.47s17.11,6.35,21.84,11.47c4.45,4.78,8,8.58,15.3,8.58s10.85-3.8,15.3-8.58c4.73-5.12,10.61-11.47,21.85-11.47s17.1,6.35,21.84,11.47c4.45,4.78,8,8.58,15.3,8.58s10.88-3.8,15.33-8.6c4.76-5.1,10.62-11.45,21.87-11.45s17.13,6.35,21.86,11.45c4.45,4.8,8,8.6,15.34,8.6Z" transform="translate(-4772.41 -2847.27)"/><path class="cls-1" d="M5106.56,2916.52c-11.26,0-17.14-6.36-21.88-11.47-4.45-4.82-8-8.6-15.32-8.6s-10.88,3.78-15.32,8.6c-4.74,5.12-10.63,11.47-21.88,11.47s-17.11-6.35-21.84-11.47c-4.46-4.82-8-8.6-15.3-8.6s-10.86,3.78-15.31,8.6c-4.72,5.12-10.6,11.47-21.84,11.47s-17.1-6.35-21.84-11.47c-4.45-4.82-8-8.6-15.3-8.6s-10.83,3.78-15.26,8.6c-4.72,5.11-10.6,11.47-21.81,11.47s-17.09-6.36-21.81-11.48c-4.43-4.81-7.92-8.59-15.23-8.59s-10.85,3.81-15.3,8.6c-4.73,5.12-10.58,11.47-21.8,11.47s-17.1-6.36-21.83-11.47c-4.44-4.82-7.95-8.6-15.28-8.6v-8.9c11.22,0,17.09,6.36,21.82,11.45,4.45,4.82,8,8.62,15.29,8.62s10.82-3.8,15.27-8.6c4.72-5.11,10.6-11.47,21.83-11.47s17.06,6.33,21.77,11.45c4.44,4.82,7.95,8.62,15.27,8.62s10.83-3.8,15.26-8.62c4.72-5.09,10.6-11.45,21.81-11.45s17.11,6.33,21.84,11.45c4.45,4.82,8,8.62,15.3,8.62s10.85-3.8,15.3-8.62c4.73-5.12,10.61-11.45,21.85-11.45s17.1,6.33,21.84,11.45c4.45,4.82,8,8.62,15.3,8.62s10.88-3.8,15.33-8.62c4.73-5.12,10.62-11.45,21.87-11.45s17.13,6.33,21.86,11.45c4.45,4.8,8,8.62,15.34,8.62Z" transform="translate(-4772.41 -2847.27)"/><path class="cls-1" d="M5106.56,2960.48c-11.26,0-17.14-6.35-21.88-11.46-4.45-4.8-8-8.6-15.32-8.6s-10.88,3.8-15.32,8.62c-4.76,5.09-10.63,11.44-21.88,11.44s-17.11-6.35-21.84-11.46c-4.46-4.8-8-8.6-15.3-8.6s-10.86,3.8-15.31,8.6c-4.72,5.11-10.6,11.46-21.84,11.46s-17.1-6.35-21.84-11.46c-4.45-4.8-8-8.6-15.3-8.6s-10.83,3.8-15.26,8.6c-4.72,5.11-10.6,11.46-21.81,11.46s-17.09-6.38-21.81-11.46c-4.43-4.8-7.92-8.6-15.23-8.6s-10.85,3.8-15.3,8.62c-4.73,5.09-10.58,11.44-21.8,11.44s-17.1-6.35-21.83-11.46c-4.44-4.8-7.95-8.6-15.28-8.6v-8.9c11.22,0,17.09,6.35,21.82,11.45,4.43,4.82,8,8.61,15.29,8.61s10.82-3.79,15.27-8.61c4.72-5.1,10.6-11.45,21.83-11.45s17.06,6.35,21.77,11.44c4.44,4.83,7.95,8.62,15.27,8.62s10.83-3.79,15.26-8.61c4.72-5.1,10.6-11.45,21.81-11.45s17.11,6.35,21.84,11.45c4.45,4.82,8,8.61,15.3,8.61s10.85-3.79,15.3-8.61c4.73-5.1,10.61-11.45,21.85-11.45s17.1,6.35,21.84,11.45c4.45,4.82,8,8.61,15.3,8.61s10.88-3.79,15.33-8.62c4.76-5.09,10.62-11.44,21.87-11.44s17.13,6.35,21.86,11.44c4.45,4.83,8,8.62,15.34,8.62Z" transform="translate(-4772.41 -2847.27)"/></svg>