<svg id="Layer_1" data-name="Layer 1" xmlns="http://www.w3.org/2000/svg" viewBox="0 0 239.39 187.96"><defs><style>.cls-1{fill:#fff;}</style></defs><path class="cls-1" d="M-790,2223.59a87.74,87.74,0,0,1,36.38,47.16,88.18,88.18,0,0,1-56.81,111,91.9,91.9,0,0,1-12.09,2.9,88,88,0,0,0,74.59,9.63,88.17,88.17,0,0,0,56.82-111A88.1,88.1,0,0,0-790,2223.59Z" transform="translate(926.22 -2222.29)"/><polygon class="cls-1" points="61 184.49 38.61 174.97 18.04 187.96 20.24 163.72 1.5 148.18 25.25 142.8 34.21 120.16 46.71 141.04 70.99 142.6 54.99 160.94 61 184.49"/><polygon class="cls-1" points="47.34 73.58 29.51 65.99 13.17 76.34 14.9 57.06 0 44.68 18.89 40.41 26.02 22.39 35.96 38.98 55.28 40.24 42.57 54.84 47.34 73.58"/><polygon class="cls-1" points="127.42 102.98 112.07 96.46 98.01 105.33 99.49 88.75 86.68 78.1 102.93 74.44 109.06 58.94 117.62 73.24 134.24 74.3 123.3 86.87 127.42 102.98"/></svg>