<svg id="Layer_1" data-name="Layer 1" xmlns="http://www.w3.org/2000/svg" viewBox="0 0 377.22 291.27"><defs><style>.cls-1{fill:#032635;}</style></defs><path class="cls-1" d="M5230.47,755.82c-21.34-28.57-19.93-77.78-20.94-62-2.67,41.14-18.88,62-18.88,62a18.06,18.06,0,0,0-2.12,8.42c0,10.89,9.86,19.72,22,19.72s22-8.83,22-19.72a18.07,18.07,0,0,0-2.13-8.42Z" transform="translate(-5115.54 -498.3)"/><path class="cls-1" d="M5279.9,662.91c-2.3,35.92-16.46,54.15-16.46,54.15a15.55,15.55,0,0,0-1.88,7.34c0,9.52,8.63,17.23,19.23,17.23S5300,733.92,5300,724.4a15.75,15.75,0,0,0-1.84-7.34C5279.58,692.11,5280.79,649.15,5279.9,662.91Z" transform="translate(-5115.54 -498.3)"/><path class="cls-1" d="M5350.64,767.08c-17.06-22.83-15.91-62.16-16.73-49.55-2.14,32.85-15.07,49.55-15.07,49.55a14.42,14.42,0,0,0-1.7,6.73c0,8.71,7.85,15.76,17.59,15.76s17.6-7.05,17.6-15.76a14.54,14.54,0,0,0-1.7-6.73Z" transform="translate(-5115.54 -498.3)"/><path class="cls-1" d="M5371.78,700c-10.73-14.36-10-39.1-10.51-31.17-1.36,20.68-9.5,31.17-9.5,31.17a9.17,9.17,0,0,0-1.08,4.24c0,5.49,5,9.93,11.07,9.93s11.08-4.44,11.08-9.93a9,9,0,0,0-1.07-4.24Z" transform="translate(-5115.54 -498.3)"/><path class="cls-1" d="M5489.38,546.47a69.6,69.6,0,0,0-78.11-47.15,69.47,69.47,0,0,1,25.25,88.6,55.33,55.33,0,0,0-51.78-36.1,54.53,54.53,0,0,0-29,8.27c-5.35-31.44-34.18-55-67.91-53.12-32.11,1.6-57.52,25.09-61.69,55.22a53.08,53.08,0,0,0-17.87-3.1A55.31,55.31,0,0,0,5153,614.32c0,.66,0,1.3.07,2-15.42,4.21-37.56,13.13-37.52,44.67,0,23.44,19.5,43.57,46,44.83l8.15-12.55c-1,0-2.06.05-2.82.09l-2,0c-20.12,0-36.52-14.55-36.52-32.43,0-21.31,11.6-28.21,33.07-33.55l4.84-1.83.14-4.89-.25-2.61a28,28,0,0,1-.34-3.78,42.42,42.42,0,0,1,42.37-42.39,41.76,41.76,0,0,1,20.58,5.58l9.77,5.47-.22-11.18c-.47-27.74,21.54-50.56,50.08-52l2.78-.08c28.07,0,51.11,21.27,52.45,48.47a41.14,41.14,0,0,1-.12,4.43l-.57,16.51,11.57-11.78a42.34,42.34,0,0,1,72.37,25.44,69.21,69.21,0,0,1-31.78,21.39,67.39,67.39,0,0,1-9.53,2.3,69.51,69.51,0,0,0,58.91,7.62c1.86-.61,3.64-1.32,5.42-2.06a32,32,0,0,1,10.93,22.23c.77,15.51-9.93,33.15-26.16,38.27l4.29,12c20.47-6.8,35.83-28,34.7-50.85a44.47,44.47,0,0,0-11.93-27.95A69.61,69.61,0,0,0,5489.38,546.47Z" transform="translate(-5115.54 -498.3)"/></svg>