<svg id="Layer_1" data-name="Layer 1" xmlns="http://www.w3.org/2000/svg" viewBox="0 0 450.46 286.93"><defs><style>.cls-1{fill:#fff;}</style></defs><path class="cls-1" d="M-813.87,1118.18a4.21,4.21,0,0,0,5.93.38,4.2,4.2,0,0,0,.38-5.92l-31.24-35.7a4.22,4.22,0,0,0-5.94-.41,4.21,4.21,0,0,0-.39,5.93Z" transform="translate(1088.18 -1041.7)"/><path class="cls-1" d="M-760.28,1097.55a4.19,4.19,0,0,0,4.16-4.23l-.34-47.45a4.18,4.18,0,0,0-4.23-4.17,4.2,4.2,0,0,0-4.16,4.23l.34,47.45A4.21,4.21,0,0,0-760.28,1097.55Z" transform="translate(1088.18 -1041.7)"/><path class="cls-1" d="M-652.28,1222.29l-42-22.08A4.2,4.2,0,0,0-700,1202a4.18,4.18,0,0,0,1.78,5.66l42,22.11a4.19,4.19,0,0,0,5.68-1.79A4.14,4.14,0,0,0-652.28,1222.29Z" transform="translate(1088.18 -1041.7)"/><path class="cls-1" d="M-642.42,1142.56l-47.12,5.51a4.2,4.2,0,0,0-3.67,4.67,4.16,4.16,0,0,0,4.65,3.67l47.13-5.5a4.18,4.18,0,0,0,3.68-4.67A4.21,4.21,0,0,0-642.42,1142.56Z" transform="translate(1088.18 -1041.7)"/><path class="cls-1" d="M-735.25,1229.91a4.2,4.2,0,0,0-5.37-2.55,4.19,4.19,0,0,0-2.57,5.35l15.79,44.77A4.2,4.2,0,0,0-722,1280a4.18,4.18,0,0,0,2.55-5.37Z" transform="translate(1088.18 -1041.7)"/><path class="cls-1" d="M-711.74,1113.81l29.22-37.41a4.2,4.2,0,0,0-.72-5.89,4.2,4.2,0,0,0-5.9.74l-29.22,37.41a4.18,4.18,0,0,0,.73,5.88A4.22,4.22,0,0,0-711.74,1113.81Z" transform="translate(1088.18 -1041.7)"/><path class="cls-1" d="M-760.49,1103.39a61.93,61.93,0,0,0-61.86,61.86,61.49,61.49,0,0,0,1,10.58,54.2,54.2,0,0,1,14.27,2.66,48.3,48.3,0,0,1-1.88-13.24,48.56,48.56,0,0,1,48.5-48.5,48.56,48.56,0,0,1,48.51,48.5,48.57,48.57,0,0,1-48.51,48.51,48.26,48.26,0,0,1-12.45-1.68A54,54,0,0,1-770,1226.3a62.15,62.15,0,0,0,9.51.81,61.94,61.94,0,0,0,61.87-61.86A61.94,61.94,0,0,0-760.49,1103.39Z" transform="translate(1088.18 -1041.7)"/><path class="cls-1" d="M-770,1234.67c.12-1.47.17-3,.17-4.47,0-1.29-.11-2.56-.2-3.83a54.15,54.15,0,0,0-2.94-14.23,54.68,54.68,0,0,0-34.17-33.58,54.21,54.21,0,0,0-14.27-2.67c-1,0-1.9-.14-2.87-.14a54,54,0,0,0-28.17,7.85,61.34,61.34,0,0,0-9.9-23.84l29.36,2.4a4.2,4.2,0,0,0,4.53-3.86,4.19,4.19,0,0,0-3.84-4.51l-37.58-3.08a64.88,64.88,0,0,0-49.35-18.86c-31.43,1.57-56.38,24.47-60.68,53.93a51.76,51.76,0,0,0-17.17-2.92,54.52,54.52,0,0,0-54.46,54.47c0,.55,0,1.1.06,1.67-15.2,4.16-36.77,13-36.73,44,0,24.65,21.89,44.71,48.74,44.71l2.58-.06c16.71-.83,85.91.06,85.91,0v-1.14l.37,0,0,1.09v-1.08c9.2,1.24,30.51,1.29,80.07,1.38,0,0,37.3.63,64.33.63h0c10.15,0,18.87-.09,23.7-.33,12.83-.63,24.74-6.84,33.53-17.45a51.68,51.68,0,0,0,12.07-35C-737.75,1256.67-751.06,1240.5-770,1234.67Zm10.83,67.66c-6.38,7.69-14.88,12.18-23.92,12.63-4.69.24-13.17.32-23,.32h0c-26.94,0-64.09-.63-64.21-.63-30.89-.06-77.76-.18-80.21-.28l-.16,3-.06-3s-32-.4-57.85-.4c-12.42,0-23.43.09-28.9.37l-1.91,0c-19.49,0-35.37-14.07-35.39-31.37,0-20.59,11.26-27.29,32.09-32.43l4.72-2,.43-4.73-.23-2.92a26.32,26.32,0,0,1-.34-3.57A41.15,41.15,0,0,1-997,1196.22a40.38,40.38,0,0,1,19.94,5.41l10.14,5.68-.19-11.62c-.46-26.94,20.9-49.12,48.63-50.5l2.71-.07a51.81,51.81,0,0,1,32.49,11.34,4.09,4.09,0,0,0,1.73,1.45,48.61,48.61,0,0,1,16.75,34.28,41.27,41.27,0,0,1-.12,4.29l-.64,17.22,12.07-12.29a40.82,40.82,0,0,1,29.29-12.31,40.4,40.4,0,0,1,7,.71,41.11,41.11,0,0,1,33.34,32.73,41.19,41.19,0,0,1,.77,7.66,41,41,0,0,1-.84,8.2l-1.36,6.72,6.75,1.19c16,2.81,27.73,15.23,28.47,30.17A38.2,38.2,0,0,1-759.14,1302.33Z" transform="translate(1088.18 -1041.7)"/></svg>