<svg id="Layer_1" data-name="Layer 1" xmlns="http://www.w3.org/2000/svg" viewBox="0 0 364.75 247.49"><defs><style>.cls-1{fill:#fff;}</style></defs><path class="cls-1" d="M-1921.74,2171.67a69.56,69.56,0,0,0,40.26-85.89,69.57,69.57,0,0,0-78.1-47.14,69.28,69.28,0,0,1,28.74,37.25,69.42,69.42,0,0,1-5.53,55.26,54.47,54.47,0,0,0-41.58-19.29,54.07,54.07,0,0,0-28.27,7.89c-5.54-30.79-33.53-53.76-67-51.95-31.56,1.56-56.59,24.56-60.89,54.13a52.1,52.1,0,0,0-17.26-2.95,54.71,54.71,0,0,0-54.65,54.65,14,14,0,0,0,.07,1.7c-15.25,4.18-36.9,13.08-36.89,44.18,0,24.72,22,44.83,48.9,44.83l2.59-.07c16.8-.81,86.23.07,86.25.06v-1.15l.37.06.07,1.08,0-1.08c9.23,1.26,30.62,1.29,80.36,1.38,0,0,37.34.64,64.47.64,10.26,0,19.08-.09,23.95-.34,25.7-1.29,47.06-25.89,45.74-52.66C-1891.1,2193.65-1903.73,2178-1921.74,2171.67Zm-14.85,79.91c-17.59.87-87.48-.32-87.62-.32-31-.05-78-.18-80.5-.27l-.15,3-.08-3.06s-32.11-.41-58.06-.41c-12.47,0-23.55.1-29,.38l-1.93,0c-19.57,0-35.51-14.13-35.54-31.48,0-20.69,11.32-27.42,32.23-32.62l5.14-1.31-.22-8.39a26,26,0,0,1-.34-3.54,41.34,41.34,0,0,1,41.3-41.3,40.66,40.66,0,0,1,20,5.44l10.14,5.68-.2-11.61c-.47-27.05,21-49.33,48.85-50.71l2.71-.07c27.39,0,49.88,20.75,51.19,47.33.05.9,0,1.77-.14,4.3l-.54,17.06,12-12.17a41,41,0,0,1,29.4-12.37,41.2,41.2,0,0,1,33.57,17.43,69.23,69.23,0,0,1-31.35,20.87,66.09,66.09,0,0,1-9.53,2.31,69.5,69.5,0,0,0,47.52,10.14l-1.07,5.5,6.71,1.17c16.09,2.82,27.84,15.29,28.57,30.3C-1902.66,2230.36-1916.63,2250.58-1936.59,2251.58Z" transform="translate(2242.85 -2017.77)"/><polygon class="cls-1" points="248.78 63.43 258.73 57.15 269.59 61.76 266.67 50.36 274.43 41.46 262.67 40.71 256.61 30.6 252.27 41.56 240.77 44.18 249.84 51.7 248.78 63.43"/><polygon class="cls-1" points="212.35 27.54 220.68 22.26 229.76 26.13 227.34 16.56 233.84 9.11 223.98 8.47 218.89 0 215.25 9.2 205.61 11.38 213.22 17.7 212.35 27.54"/></svg>