<svg id="Layer_1" data-name="Layer 1" xmlns="http://www.w3.org/2000/svg" viewBox="0 0 358.22 282.7"><defs><style>.cls-1{fill:#032635;}</style></defs><path class="cls-1" d="M-1940.06,456c.14-1.63.22-3.25.22-4.86a55.31,55.31,0,0,0-55.24-55.23,54.48,54.48,0,0,0-29,8.28c-5.37-31.44-34.18-55-67.91-53.12-32.1,1.59-57.53,25.09-61.7,55.22a53.16,53.16,0,0,0-17.86-3.11,55.29,55.29,0,0,0-55.23,55.24c0,.65,0,1.3.06,2-15.43,4.2-37.55,13.13-37.53,44.67,0,23.44,19.51,43.56,46.06,44.82l8.13-12.54c-1,0-2.07.05-2.82.09l-2,0c-20.13,0-36.52-14.55-36.52-32.43,0-21.31,11.59-28.22,33.08-33.55l4.83-1.84.14-4.88-.24-2.62a27.67,27.67,0,0,1-.37-3.77,42.43,42.43,0,0,1,42.39-42.38,41.78,41.78,0,0,1,20.58,5.57l9.75,5.47-.2-11.19c-.47-27.73,21.53-50.56,50.08-52l2.78-.08c28.06,0,51.1,21.28,52.45,48.47a40.23,40.23,0,0,1-.14,4.43l-.58,16.52,11.61-11.79a42,42,0,0,1,30.18-12.69,42.44,42.44,0,0,1,42.4,42.37,43,43,0,0,1-.87,8.47l-1.3,6.46,6.47,1.13c16.57,2.9,28.65,15.73,29.41,31.19s-9.93,33.15-26.13,38.26l4.28,12c20.48-6.81,35.83-28,34.69-50.85C-1907.09,478.28-1920.72,461.85-1940.06,456Z" transform="translate(2264.29 -351)"/><path class="cls-1" d="M-2149.38,599.94h0c-21.34-28.56-19.91-77.77-20.92-62-2.67,41.13-18.89,62-18.89,62h0a18,18,0,0,0-2.11,8.42c0,10.9,9.84,19.73,22,19.73s22-8.83,22-19.73A17.92,17.92,0,0,0-2149.38,599.94Z" transform="translate(2264.29 -351)"/><path class="cls-1" d="M-2081.65,561.19h0c-18.63-25-17.4-67.91-18.28-54.16-2.34,35.93-16.47,54.16-16.47,54.16h0a15.64,15.64,0,0,0-1.87,7.35c0,9.51,8.62,17.22,19.22,17.22s19.24-7.71,19.24-17.22A15.87,15.87,0,0,0-2081.65,561.19Z" transform="translate(2264.29 -351)"/><path class="cls-1" d="M-2029.19,611.21h0c-17-22.83-15.89-62.16-16.73-49.56-2.11,32.86-15.08,49.56-15.08,49.56h0a14.49,14.49,0,0,0-1.68,6.73c0,8.7,7.85,15.76,17.6,15.76s17.59-7.06,17.59-15.76A14.51,14.51,0,0,0-2029.19,611.21Z" transform="translate(2264.29 -351)"/><path class="cls-1" d="M-2008,544.17h0c-10.72-14.37-10-39.11-10.51-31.19-1.36,20.69-9.49,31.19-9.49,31.19h0a8.71,8.71,0,0,0-1.09,4.23c0,5.49,5,9.93,11.09,9.93s11.08-4.44,11.08-9.93A8.92,8.92,0,0,0-2008,544.17Z" transform="translate(2264.29 -351)"/></svg>