<svg id="Layer_1" data-name="Layer 1" xmlns="http://www.w3.org/2000/svg" viewBox="0 0 358.22 339.01"><defs><style>.cls-1{fill:#fff;}</style></defs><path class="cls-1" d="M-1863.89,2808.82c.14-1.63.21-3.24.21-4.86a55.29,55.29,0,0,0-55.23-55.22,54.59,54.59,0,0,0-29,8.27c-5.38-31.45-34.19-55-67.92-53.11-32.09,1.59-57.54,25.08-61.69,55.21a53.49,53.49,0,0,0-17.88-3.11,55.31,55.31,0,0,0-55.24,55.23c0,.67,0,1.31.08,2-15.42,4.21-37.57,13.12-37.53,44.67,0,23.44,19.51,43.56,46,44.81l8.13-12.54c-1,0-2.06.06-2.81.09l-2,0c-20.14,0-36.53-14.56-36.54-32.42,0-21.32,11.6-28.23,33.07-33.56l4.83-1.84.14-4.88-.23-2.61a26.57,26.57,0,0,1-.36-3.79,42.43,42.43,0,0,1,42.38-42.37,41.74,41.74,0,0,1,20.57,5.57l9.77,5.47-.2-11.18c-.47-27.73,21.52-50.57,50.07-52l2.78-.06c28.07,0,51.11,21.26,52.46,48.47,0,1,0,1.93-.14,4.41l-.57,16.52,11.59-11.79a42,42,0,0,1,30.19-12.68,42.42,42.42,0,0,1,42.39,42.36,43.78,43.78,0,0,1-.86,8.48l-1.31,6.45,6.49,1.15c16.56,2.89,28.64,15.71,29.4,31.17s-9.91,33.15-26.15,38.27l4.3,11.95c20.47-6.79,35.83-28,34.69-50.85C-1830.92,2831.09-1844.56,2814.64-1863.89,2808.82Z" transform="translate(2188.12 -2703.79)"/><path class="cls-1" d="M-2115.45,2928.45h3.73v-3.66h-3.73Zm14.51,5,2.63,2.6,2.65-2.6-2.65-2.64Zm-19.72-24.74-2.61,2.65,2.64,2.59,2.6-2.59Zm35.82,19.79h3.72v-3.66h-3.72Zm-27.1-34.6h-3.69v3.7h3.69Zm31.09,0h-3.72v3.7h3.72Zm-14.92-5.08-2.64-2.62-2.63,2.62,2.63,2.62Zm18.36,28.06-2.37-5.68,2.37-5.4-4.37,4.54h-7.09l2.57-4-4.56-.87,5-5.09h6.19l-5.66-2.06-2.14-5.65v6.27l-4.92,5.13-.75-4.88-4.1,2.78v-6.9l4.48-4.67-5.33,2.66-5.59-2.45,4.48,4.46v6.9l-4.16-2.49-.68,4.59-5-5.13v-6.27l-2,5.65-5.82,2.25h6.26l5,4.9-5.15,1.13,3.18,3.71h-7.12l-4.45-4.54,2.15,5.56-2.15,5.52,4.45-4.66h7.12l-3.18,4.12,5.15.83-5,5h-6.26l5.82,2,1.88,5.59.08-6.17,4.83-4.83.88,5,4.16-3.09v7.12l-4.48,4.36,5.45-2.4,5.35,2.4-4.36-4.36v-7.12l4.1,2.8.75-4.88,5,5,.11,6.17,1.81-5.46,5.79-2.15h-6.19l-5-4.83,4.85-1.41-2.86-3.71h7.09Zm-26.26-9.37,3.05,2.83h-4.08Zm.21,7.79-1.24-3.08h4.08Zm4.27,2.52-2.76-1.13,2.76-3Zm0-8.91-2.76-2.84,2.76-1.22Zm6.32-1.4,1.07,2.83h-4.09Zm-4.25-2.66,2.93,1.22-2.93,2.84Zm0,13.07v-4.26l2.93,2.83Zm4.09-2.62-2.86-3.08h4.36Zm16.79-6.66-2.63,2.6,2.63,2.62,2.64-2.62Z" transform="translate(2188.12 -2703.79)"/><path class="cls-1" d="M-1966.16,2908.69h4.83v-4.76h-4.83Zm18.82,6.41,3.41,3.36,3.43-3.36-3.43-3.43Zm-25.58-32.07-3.39,3.43,3.43,3.34,3.36-3.34Zm46.44,25.66h4.84v-4.76h-4.84Zm-35.12-44.88h-4.79v4.82h4.79Zm40.31,0h-4.82v4.82h4.82Zm-19.36-6.59-3.42-3.38-3.4,3.38,3.4,3.42Zm23.81,36.41-3.09-7.4,3.09-7-5.65,5.89h-9.21l3.33-5.18-5.92-1.11,6.52-6.6h8l-7.34-2.67-2.78-7.33v8.12l-6.37,6.65-1-6.31-5.3,3.62v-9l5.79-6-6.91,3.45-7.24-3.18,5.79,5.77v9l-5.38-3.26-.89,6-6.52-6.65v-8.12l-2.54,7.33-7.55,2.91h8.11l6.51,6.36-6.67,1.47,4.1,4.82h-9.21l-5.79-5.89,2.8,7.2-2.8,7.17,5.79-6.06h9.21l-4.1,5.35,6.67,1.06-6.51,6.49H-1968l7.55,2.62,2.43,7.25.11-8,6.27-6.27,1.14,6.49,5.38-4v9.22l-5.79,5.66,7.05-3.11,7,3.11-5.65-5.66v-9.22l5.3,3.61,1-6.29,6.49,6.47.14,8,2.35-7.07,7.51-2.8h-8l-6.52-6.24,6.28-1.84-3.69-4.82h9.21Zm-34-12.16,3.94,3.68h-5.29Zm.26,10.07-1.61-4h5.29Zm5.53,3.31-3.57-1.48,3.57-3.93Zm0-11.57-3.57-3.69,3.57-1.58Zm8.22-1.81,1.37,3.68h-5.32Zm-5.51-3.46,3.78,1.58-3.78,3.69Zm0,17v-5.53l3.78,3.69Zm5.28-3.43-3.72-4h5.67Zm21.78-8.62-3.42,3.38,3.42,3.39,3.42-3.39Z" transform="translate(2188.12 -2703.79)"/><path class="cls-1" d="M-2081.84,3033h4.85v-4.77h-4.85Zm18.83,6.4,3.42,3.37,3.42-3.37-3.42-3.42Zm-25.59-32.08-3.39,3.44,3.42,3.35,3.39-3.35Zm46.45,25.68h4.82v-4.77h-4.82Zm-35.13-44.9h-4.78V2993h4.78Zm40.31,0h-4.81V2993h4.81Zm-19.35-6.58-3.42-3.38-3.41,3.38,3.41,3.41Zm23.82,36.4-3.1-7.39,3.1-7-5.67,5.88h-9.21l3.33-5.18-5.91-1.1,6.52-6.62h8l-7.34-2.66-2.76-7.34v8.13l-6.37,6.65-1-6.32-5.32,3.62v-9l5.8-6-6.91,3.45-7.23-3.18,5.79,5.78v9l-5.38-3.26-.9,6-6.51-6.65v-8.13l-2.54,7.34-7.55,2.92h8.13l6.5,6.36-6.69,1.46,4.11,4.82h-9.21l-5.79-5.88,2.79,7.19-2.79,7.16,5.79-6h9.21l-4.11,5.37,6.69,1-6.5,6.5h-8.13l7.55,2.61,2.43,7.25.11-8,6.27-6.26,1.14,6.48,5.38-4v9.23l-5.79,5.64,7.06-3.1,6.95,3.1-5.67-5.64v-9.23l5.32,3.61,1-6.3,6.49,6.48.14,8,2.35-7.08,7.49-2.78h-8l-6.52-6.25,6.28-1.85-3.7-4.81h9.21Zm-34.05-12.16,3.93,3.69h-5.28Zm.26,10.09-1.61-4h5.28Zm5.53,3.31-3.57-1.48,3.57-3.94Zm0-11.59-3.57-3.68,3.57-1.57Zm8.22-1.81,1.37,3.69h-5.32Zm-5.52-3.44,3.79,1.57-3.79,3.68Zm0,17v-5.53l3.79,3.69Zm5.28-3.42-3.71-4h5.67Zm21.78-8.63-3.41,3.37,3.41,3.4,3.42-3.4Z" transform="translate(2188.12 -2703.79)"/><path class="cls-1" d="M-2005.79,2971.4h3.36v-3.32h-3.36Zm13.08,4.41,2.37,2.36,2.37-2.36-2.37-2.36Zm-17.77-22.26-2.36,2.4,2.37,2.3,2.34-2.3Zm32.27,17.85h3.36v-3.32h-3.36Zm-24.4-31.17H-2006v3.33h3.35Zm28,0H-1978v3.33h3.36Zm-13.46-4.59-2.37-2.36-2.36,2.36,2.36,2.35Zm16.54,25.28-2.14-5.14,2.14-4.84-3.92,4.08h-6.39l2.31-3.58-4.11-.78,4.53-4.59h5.56l-5.1-1.85-1.93-5.08v5.64l-4.42,4.61-.69-4.38-3.67,2.49v-6.21l4-4.19-4.8,2.38-5-2.2,4,4v6.21l-3.73-2.25-.61,4.14-4.53-4.61v-5.64l-1.76,5.08-5.26,2h5.65l4.51,4.42-4.63,1,2.84,3.34h-6.39l-4-4.08,1.93,5-1.93,5,4-4.2h6.39l-2.84,3.71,4.63.74-4.51,4.51H-2007l5.26,1.8,1.68,5.05.08-5.56,4.35-4.35.79,4.5,3.73-2.8v6.42l-4,3.92,4.91-2.15,4.82,2.15-3.92-3.92v-6.42l3.67,2.53.69-4.38,4.49,4.5.1,5.56,1.64-4.91,5.22-1.94h-5.56l-4.53-4.34,4.36-1.29-2.56-3.33h6.39Zm-23.64-8.45,2.74,2.55h-3.68Zm.18,7-1.12-2.75h3.68Zm3.83,2.29-2.47-1,2.47-2.73Zm0-8-2.47-2.55,2.47-1.1Zm5.72-1.25,1,2.55h-3.69Zm-3.83-2.4,2.63,1.1-2.63,2.55Zm0,11.79V2958l2.63,2.56Zm3.67-2.39-2.58-2.75h3.94Zm15.14-6-2.37,2.34,2.37,2.37,2.37-2.37Z" transform="translate(2188.12 -2703.79)"/><path class="cls-1" d="M-2038.81,2906.3h2.37V2904h-2.37Zm9.21,3.12,1.67,1.66,1.67-1.66-1.67-1.66Zm-12.5-15.67-1.66,1.68,1.67,1.63,1.64-1.63Zm22.71,12.55h2.36V2904h-2.36Zm-17.18-21.94h-2.34v2.35h2.34Zm19.7,0h-2.35v2.35h2.35Zm-9.45-3.22-1.68-1.66-1.66,1.66,1.66,1.66Zm11.64,17.79-1.5-3.62,1.5-3.41-2.78,2.89h-4.48l1.61-2.53-2.89-.55,3.19-3.23h3.92l-3.6-1.31-1.35-3.56v4l-3.11,3.25-.47-3.09-2.6,1.76v-4.37l2.84-3-3.39,1.7-3.54-1.56,2.84,2.83v4.37l-2.64-1.57-.43,2.9-3.19-3.25v-4l-1.24,3.56-3.7,1.44h4l3.18,3.1-3.27.72,2,2.36h-4.5l-2.84-2.89,1.37,3.53-1.37,3.5,2.84-3h4.5l-2,2.63,3.27.52-3.18,3.18h-4l3.7,1.26,1.2,3.55,0-3.91,3.07-3.06.55,3.16,2.64-1.95v4.52l-2.84,2.75,3.45-1.52,3.4,1.52-2.76-2.75v-4.52l2.6,1.77.47-3.1,3.17,3.18.08,3.91,1.14-3.45,3.67-1.36H-2020l-3.19-3.06,3.09-.92-1.81-2.35h4.48Zm-16.65-5.95,1.93,1.81H-2032Zm.14,4.93-.79-1.95h2.58Zm2.7,1.62-1.75-.72,1.75-1.91Zm0-5.67-1.75-1.79,1.75-.77Zm4-.88.67,1.81h-2.6Zm-2.7-1.68,1.85.77-1.85,1.79Zm0,8.28v-2.68l1.85,1.78Zm2.6-1.67-1.83-1.95h2.78Zm10.65-4.2-1.67,1.63,1.67,1.66,1.65-1.66Z" transform="translate(2188.12 -2703.79)"/><path class="cls-1" d="M-1938.43,2975.89h2.69v-2.66h-2.69Zm10.51,3.57,1.9,1.87,1.9-1.87-1.9-1.92Zm-14.3-17.91-1.88,1.92,1.9,1.86,1.9-1.86Zm25.92,14.34h2.71v-2.66h-2.71Zm-19.6-25.06h-2.67v2.67h2.67Zm22.51,0h-2.69v2.67h2.69Zm-10.82-3.69-1.9-1.88-1.9,1.88,1.9,1.91Zm13.31,20.33-1.73-4.13,1.73-3.89-3.16,3.29h-5.15l1.87-2.88-3.32-.63,3.64-3.7h4.48l-4.11-1.48-1.54-4.09v4.53l-3.55,3.73-.54-3.55-3,2v-5l3.22-3.39-3.85,1.94-4-1.77,3.24,3.22v5l-3-1.81-.5,3.33-3.65-3.73V2950l-1.4,4.09-4.22,1.62h4.53l3.63,3.56-3.72.82,2.27,2.69h-5.13l-3.22-3.29,1.55,4-1.55,4,3.22-3.37h5.13l-2.27,3,3.72.6-3.63,3.6h-4.53l4.22,1.47,1.35,4.06.05-4.47,3.51-3.49.64,3.61,3-2.25v5.15l-3.24,3.16,4-1.74,3.86,1.74-3.14-3.16v-5.15l3,2,.54-3.55,3.62,3.64.08,4.47,1.3-4,4.2-1.57H-1917l-3.64-3.48,3.51-1-2.06-2.68h5.15Zm-19-6.79,2.2,2.06h-3Zm.14,5.63-.9-2.21h3Zm3.1,1.84-2-.82,2-2.2Zm0-6.46-2-2.06,2-.88Zm4.57-1,.78,2.06h-3Zm-3.07-1.93,2.11.88-2.11,2.06Zm0,9.48v-3.1l2.11,2.06Zm3-1.92-2.08-2.21h3.17Zm12.15-4.83-1.91,1.89,1.91,1.91,1.9-1.91Z" transform="translate(2188.12 -2703.79)"/></svg>